<svg width="261" height="98" viewBox="0 0 261 98" fill="none" xmlns="http://www.w3.org/2000/svg">
<path d="M5.13485 49.4799C8.23727 49.4799 11.2028 48.0333 14.0873 47.0212C25.1542 43.138 35.9311 38.5301 47.123 34.9795C73.7872 26.5205 100.989 20.7031 128.199 14.3007C150.208 9.12206 171.296 6.89851 193.766 5.47436C211.735 4.33547 230.989 1.20883 249.057 3.01559C253.123 3.42222 256.598 6.11838 257.946 10.0136C260.118 16.2861 255.744 21.3013 251.264 25.0814C239.501 35.0059 228.169 42.6911 213.941 48.5973C206.478 51.6951 199.291 55.4427 191.812 58.4954C183.648 61.8277 174.922 63.6713 166.846 67.1326C152.164 73.425 135.755 76.8628 120.256 80.6874C105.015 84.448 89.9815 88.2018 74.6107 91.4681C55.441 95.5417 34.3258 99.2547 16.483 90.3333C11.3446 87.7641 1.73041 81.0392 1.73041 74.4459C1.73041 67.7761 5.77919 65.2135 8.5393 59.6933" stroke="#F1D302" stroke-width="3" stroke-linecap="round"/>
</svg>
